<svg xmlns="http://www.w3.org/2000/svg" width="1200" height="760" viewBox="0 0 1200 760">
  <defs>
    <linearGradient id="bg" x1="0" y1="0" x2="1" y2="1">
      <stop stop-color="#fffdf8"/>
      <stop offset="1" stop-color="#f6f3ec"/>
    </linearGradient>
    <filter id="shadow" x="-20%" y="-20%" width="140%" height="140%">
      <feDropShadow dx="0" dy="28" stdDeviation="34" flood-color="#111827" flood-opacity=".13"/>
    </filter>
  </defs>
  <rect width="1200" height="760" fill="url(#bg)"/>
  <circle cx="1040" cy="80" r="260" fill="#bbf7d0" opacity=".45"/>
  <circle cx="120" cy="90" r="220" fill="#2563eb" opacity=".13"/>
  <rect x="60" y="52" width="1080" height="656" rx="44" fill="rgba(255,255,255,.78)" stroke="rgba(17,24,39,.1)" filter="url(#shadow)"/>
  <text x="100" y="130" font-family="Inter, Arial, sans-serif" font-size="24" font-weight="900" fill="#2563eb" letter-spacing="4">BETAROOM</text>
  <text x="100" y="208" font-family="Inter, Arial, sans-serif" font-size="64" font-weight="900" fill="#111827">Product dashboard</text>
  <text x="100" y="258" font-family="Inter, Arial, sans-serif" font-size="26" fill="#667085">Signals, repeated pains, and AI-generated insight.</text>
  <g font-family="Inter, Arial, sans-serif">
    <rect x="100" y="320" width="220" height="120" rx="18" fill="#eef4ff" stroke="rgba(17,24,39,.12)"/><text x="118" y="352" font-size="18" font-weight="800" fill="#111827">24 responses</text>
<rect x="340" y="320" width="220" height="120" rx="18" fill="#ffffff" stroke="rgba(17,24,39,.12)"/><text x="358" y="352" font-size="18" font-weight="800" fill="#111827">8 pain points</text>
<rect x="580" y="320" width="220" height="120" rx="18" fill="#ffffff" stroke="rgba(17,24,39,.12)"/><text x="598" y="352" font-size="18" font-weight="800" fill="#111827">5 high priority</text>
<rect x="820" y="320" width="220" height="120" rx="18" fill="#ffffff" stroke="rgba(17,24,39,.12)"/><text x="838" y="352" font-size="18" font-weight="800" fill="#111827">7.4 return score</text>
<rect x="100" y="470" width="940" height="110" rx="18" fill="#f8fafc" stroke="rgba(17,24,39,.12)"/><text x="118" y="502" font-size="18" font-weight="800" fill="#111827">AI Summary: onboarding and proof of value are the main blockers</text>
  </g>
</svg>